<svg width="40" height="40" viewBox="0 0 40 40" fill="none" xmlns="http://www.w3.org/2000/svg">
<path fill-rule="evenodd" clip-rule="evenodd" d="M31.4417 8.53978C32.17 8.79478 32.6567 9.48144 32.6567 10.2531V21.5414C32.6567 24.6964 31.51 27.7081 29.485 30.0414C28.4667 31.2164 27.1784 32.1314 25.81 32.8714L19.88 36.0748L13.94 32.8698C12.57 32.1298 11.28 31.2164 10.26 30.0398C8.23337 27.7064 7.08337 24.6931 7.08337 21.5348V10.2531C7.08337 9.48144 7.57004 8.79478 8.29837 8.53978L19.2684 4.68478C19.6584 4.54811 20.0834 4.54811 20.4717 4.68478L31.4417 8.53978Z" stroke="#D2DFFE" stroke-width="3" stroke-linecap="round" stroke-linejoin="round"/>
<path opacity="0.4" d="M15.5376 19.8629L18.6909 23.0179L25.1876 16.5212" stroke="#D2DFFE" stroke-width="3" stroke-linecap="round" stroke-linejoin="round"/>
</svg>
