<svg width="40" height="40" viewBox="0 0 40 40" fill="none" xmlns="http://www.w3.org/2000/svg">
<path opacity="0.4" d="M29.8127 18.1614C32.1377 17.8347 33.9277 15.8414 33.9327 13.4264C33.9327 11.0464 32.1977 9.07304 29.9227 8.69971" stroke="#D2DFFE" stroke-width="3" stroke-linecap="round" stroke-linejoin="round"/>
<path d="M32.8809 23.7505C35.1325 24.0872 36.7042 24.8755 36.7042 26.5005C36.7042 27.6188 35.9642 28.3455 34.7675 28.8022" stroke="#D2DFFE" stroke-width="3" stroke-linecap="round" stroke-linejoin="round"/>
<path fill-rule="evenodd" clip-rule="evenodd" d="M19.8111 24.4397C14.4544 24.4397 9.87939 25.2514 9.87939 28.493C9.87939 31.733 14.4261 32.568 19.8111 32.568C25.1677 32.568 29.7411 31.7647 29.7411 28.5214C29.7411 25.278 25.1961 24.4397 19.8111 24.4397Z" stroke="#D2DFFE" stroke-width="3" stroke-linecap="round" stroke-linejoin="round"/>
<path opacity="0.4" fill-rule="evenodd" clip-rule="evenodd" d="M19.8111 19.8133C23.3261 19.8133 26.1761 16.9649 26.1761 13.4483C26.1761 9.93325 23.3261 7.08325 19.8111 7.08325C16.2961 7.08325 13.4461 9.93325 13.4461 13.4483C13.4328 16.9516 16.2611 19.8016 19.7645 19.8133H19.8111Z" stroke="#D2DFFE" stroke-width="3" stroke-linecap="round" stroke-linejoin="round"/>
<path opacity="0.4" d="M9.80799 18.1614C7.48132 17.8347 5.69299 15.8414 5.68799 13.4264C5.68799 11.0464 7.42299 9.07304 9.69799 8.69971" stroke="#D2DFFE" stroke-width="3" stroke-linecap="round" stroke-linejoin="round"/>
<path d="M6.73984 23.7505C4.48817 24.0872 2.9165 24.8755 2.9165 26.5005C2.9165 27.6188 3.6565 28.3455 4.85317 28.8022" stroke="#D2DFFE" stroke-width="3" stroke-linecap="round" stroke-linejoin="round"/>
</svg>
